M48
;DRILL file {KiCad 4.0.5} date 02/06/17 19:39:13
;FORMAT={-:-/ absolute / inch / decimal}
FMAT,2
INCH,TZ
T1C0.016
T2C0.039
T3C0.043
T4C0.059
T5C0.098
%
G90
G05
M72
T1
X3.6562Y-3.9375
X3.6562Y-4.0312
X4.0312Y-3.375
X4.7812Y-3.1875
X4.7812Y-3.375
X4.9688Y-2.3438
X5.5312Y-3.75
X5.7188Y-3.75
X5.7188Y-3.8438
X5.8125Y-3.9375
X6.375Y-3.5625
X7.0312Y-3.6562
X7.0312Y-4.2188
X7.2188Y-1.5
X7.9688Y-4.125
X8.7188Y-3.75
X9.5625Y-3.6562
X10.4062Y-3.8438
T2
X1.1125Y-1.5
X1.1125Y-2.25
X1.5125Y-1.5
X1.5125Y-2.25
X1.5938Y-3.0812
X1.5938Y-3.4812
X1.5938Y-3.925
X1.5938Y-4.325
X1.7812Y-2.425
X1.7812Y-2.825
X2.25Y-0.925
X2.25Y-1.325
X2.4375Y-3.0812
X2.4375Y-3.4812
X2.5312Y-3.925
X2.5312Y-4.325
X2.625Y-1.675
X2.625Y-2.075
X2.8125Y-2.425
X2.8125Y-2.825
X3.Y-0.925
X3.Y-1.325
X3.1875Y-3.0812
X3.1875Y-3.4812
X3.375Y-1.675
X3.375Y-2.075
X3.4688Y-3.925
X3.4688Y-4.325
X3.5625Y-2.425
X3.5625Y-2.825
X3.75Y-0.925
X3.75Y-1.325
X3.9375Y-3.0812
X3.9375Y-3.4812
X4.125Y-1.675
X4.125Y-2.075
X4.3125Y-2.425
X4.3125Y-2.825
X4.5Y-0.925
X4.5Y-1.325
X4.6875Y-3.0812
X4.6875Y-3.4812
X4.875Y-1.675
X4.875Y-2.075
X5.0625Y-2.425
X5.0625Y-2.825
X5.25Y-0.925
X5.25Y-1.325
X5.4375Y-3.0812
X5.4375Y-3.4812
X5.6125Y-3.
X5.625Y-1.675
X5.625Y-2.075
X6.Y-0.925
X6.Y-1.325
X6.0125Y-3.
X6.1875Y-3.0812
X6.1875Y-3.4812
X6.2812Y-3.925
X6.2812Y-4.325
X6.375Y-1.675
X6.375Y-2.075
X6.5625Y-2.425
X6.5625Y-2.825
X6.75Y-0.925
X6.75Y-1.325
X6.9375Y-3.0812
X6.9375Y-3.4812
X7.125Y-1.675
X7.125Y-2.075
X7.3125Y-2.425
X7.3125Y-2.825
X7.5Y-0.925
X7.5Y-1.325
X7.6875Y-3.0812
X7.6875Y-3.4812
X7.875Y-1.675
X7.875Y-2.075
X8.0625Y-2.425
X8.0625Y-2.825
X8.25Y-0.925
X8.25Y-1.325
X8.4375Y-3.0812
X8.4375Y-3.4812
X8.625Y-1.675
X8.625Y-2.075
X8.8125Y-2.425
X8.8125Y-2.825
X9.Y-0.925
X9.Y-1.325
X9.0938Y-3.925
X9.0938Y-4.325
X9.1875Y-3.0812
X9.1875Y-3.4812
X9.375Y-1.675
X9.375Y-2.075
X9.5625Y-2.425
X9.5625Y-2.825
X9.75Y-0.925
X9.75Y-1.325
X9.925Y-1.5
X9.9375Y-3.0812
X9.9375Y-3.4812
X10.0312Y-3.925
X10.0312Y-4.325
X10.125Y-1.675
X10.125Y-2.075
X10.2188Y-3.0812
X10.2188Y-3.4812
X10.3Y-2.25
X10.3125Y-2.425
X10.3125Y-2.825
X10.325Y-1.5
X10.5Y-0.925
X10.5Y-1.325
X10.7Y-2.25
X10.9688Y-3.925
X10.9688Y-4.325
X11.0625Y-2.425
X11.0625Y-2.825
X11.1562Y-3.925
X11.1562Y-4.325
X11.7188Y-3.0812
X11.7188Y-3.4812
T3
X4.325Y-3.7312
X4.325Y-4.3312
X4.425Y-3.7312
X4.425Y-4.3312
X4.525Y-3.7312
X4.525Y-4.3312
X4.625Y-3.7312
X4.625Y-4.3312
X4.725Y-3.7312
X4.725Y-3.8312
X4.725Y-4.2313
X4.725Y-4.3312
X4.825Y-3.7312
X4.825Y-4.3312
X4.925Y-3.7312
X4.925Y-4.3312
X5.025Y-3.7312
X5.025Y-4.3312
X5.125Y-3.7312
X5.125Y-4.3312
X5.225Y-3.7312
X5.225Y-4.3312
X5.325Y-3.7312
X5.325Y-4.3312
X5.425Y-3.7312
X5.425Y-3.8312
X5.425Y-3.9312
X5.425Y-4.0312
X5.425Y-4.1312
X5.425Y-4.2313
X5.425Y-4.3312
T4
X0.975Y-1.025
X1.0687Y-3.275
X1.0687Y-4.025
X1.1625Y-1.775
X1.225Y-0.925
X1.2562Y-2.525
X1.3187Y-3.175
X1.3187Y-3.925
X1.4125Y-1.675
X1.5062Y-2.425
X1.725Y-1.025
X1.9125Y-3.275
X1.975Y-0.925
X2.0063Y-4.025
X2.1Y-1.775
X2.1625Y-3.175
X2.2563Y-3.925
X2.2875Y-2.525
X2.35Y-1.675
X2.475Y-1.025
X2.5375Y-2.425
X2.6625Y-3.275
X2.725Y-0.925
X2.85Y-1.775
X2.9125Y-3.175
X2.9438Y-4.025
X3.0375Y-2.525
X3.1Y-1.675
X3.1938Y-3.925
X3.225Y-1.025
X3.2875Y-2.425
X3.4125Y-3.275
X3.475Y-0.925
X3.6Y-1.775
X3.6625Y-3.175
X3.7875Y-2.525
X3.85Y-1.675
X3.975Y-1.025
X4.0375Y-2.425
X4.1625Y-3.275
X4.225Y-0.925
X4.35Y-1.775
X4.4125Y-3.175
X4.5375Y-2.525
X4.6Y-1.675
X4.725Y-1.025
X4.7875Y-2.425
X4.9125Y-3.275
X4.975Y-0.925
X5.1Y-1.775
X5.1625Y-3.175
X5.2875Y-2.525
X5.35Y-1.675
X5.475Y-1.025
X5.5375Y-2.425
X5.6625Y-3.275
X5.725Y-0.925
X5.7562Y-4.025
X5.85Y-1.775
X5.9125Y-3.175
X6.0062Y-3.925
X6.0375Y-2.525
X6.1Y-1.675
X6.225Y-1.025
X6.2875Y-2.425
X6.4125Y-3.275
X6.475Y-0.925
X6.6Y-1.775
X6.6625Y-3.175
X6.7875Y-2.525
X6.85Y-1.675
X6.975Y-1.025
X7.0375Y-2.425
X7.1625Y-3.275
X7.225Y-0.925
X7.35Y-1.775
X7.4125Y-3.175
X7.5375Y-2.525
X7.6Y-1.675
X7.725Y-1.025
X7.7875Y-2.425
X7.9125Y-3.275
X7.975Y-0.925
X8.1Y-1.775
X8.1625Y-3.175
X8.2875Y-2.525
X8.35Y-1.675
X8.475Y-1.025
X8.5375Y-2.425
X8.5687Y-4.025
X8.6625Y-3.275
X8.725Y-0.925
X8.8187Y-3.925
X8.85Y-1.775
X8.9125Y-3.175
X9.0375Y-2.525
X9.1Y-1.675
X9.225Y-1.025
X9.2875Y-2.425
X9.4125Y-3.275
X9.475Y-0.925
X9.5062Y-4.025
X9.6Y-1.775
X9.6625Y-3.175
X9.7562Y-3.925
X9.7875Y-2.525
X9.85Y-1.675
X9.975Y-1.025
X10.0375Y-2.425
X10.225Y-0.925
X10.35Y-1.775
X10.4437Y-4.025
X10.5375Y-2.525
X10.6Y-1.675
X10.6937Y-3.925
X10.7875Y-2.425
X10.8187Y-3.275
X11.0687Y-3.175
X11.1Y-1.025
X11.3312Y-2.15
X11.35Y-0.925
X11.3812Y-4.025
X11.4313Y-2.4
X11.6312Y-3.925
T5
X1.7077Y-1.875G85X1.7904Y-1.875
G05
X5.7712Y-2.625G85X5.8538Y-2.625
G05
X8.2156Y-4.125G85X8.2982Y-4.125
G05
X10.9591Y-1.875G85X11.0418Y-1.875
G05
T0
M30
