G04 #@! TF.FileFunction,Legend,Top*
%FSLAX46Y46*%
G04 Gerber Fmt 4.6, Leading zero omitted, Abs format (unit mm)*
G04 Created by KiCad (PCBNEW 4.0.5) date 02/06/17 19:39:07*
%MOMM*%
%LPD*%
G01*
G04 APERTURE LIST*
%ADD10C,0.100000*%
%ADD11C,0.381000*%
G04 APERTURE END LIST*
D10*
D11*
X279400000Y-22225000D02*
X281178000Y-22225000D01*
X290322000Y-22225000D02*
X292100000Y-22225000D01*
X292100000Y-22225000D02*
X292100000Y-24003000D01*
X292100000Y-33147000D02*
X292100000Y-34925000D01*
X292100000Y-34925000D02*
X290322000Y-34925000D01*
X281178000Y-34925000D02*
X279400000Y-34925000D01*
X279400000Y-34925000D02*
X279400000Y-33147000D01*
X279400000Y-24003000D02*
X279400000Y-22225000D01*
X286543750Y-50800000D02*
X288321750Y-50800000D01*
X297465750Y-50800000D02*
X299243750Y-50800000D01*
X299243750Y-50800000D02*
X299243750Y-52578000D01*
X299243750Y-61722000D02*
X299243750Y-63500000D01*
X299243750Y-63500000D02*
X297465750Y-63500000D01*
X288321750Y-63500000D02*
X286543750Y-63500000D01*
X286543750Y-63500000D02*
X286543750Y-61722000D01*
X286543750Y-52578000D02*
X286543750Y-50800000D01*
X272256250Y-79375000D02*
X274034250Y-79375000D01*
X283178250Y-79375000D02*
X284956250Y-79375000D01*
X284956250Y-79375000D02*
X284956250Y-81153000D01*
X284956250Y-90297000D02*
X284956250Y-92075000D01*
X284956250Y-92075000D02*
X283178250Y-92075000D01*
X274034250Y-92075000D02*
X272256250Y-92075000D01*
X272256250Y-92075000D02*
X272256250Y-90297000D01*
X272256250Y-81153000D02*
X272256250Y-79375000D01*
X143668750Y-98425000D02*
X145446750Y-98425000D01*
X154590750Y-98425000D02*
X156368750Y-98425000D01*
X156368750Y-98425000D02*
X156368750Y-100203000D01*
X156368750Y-109347000D02*
X156368750Y-111125000D01*
X156368750Y-111125000D02*
X154590750Y-111125000D01*
X145446750Y-111125000D02*
X143668750Y-111125000D01*
X143668750Y-111125000D02*
X143668750Y-109347000D01*
X143668750Y-100203000D02*
X143668750Y-98425000D01*
X29368750Y-60325000D02*
X31146750Y-60325000D01*
X40290750Y-60325000D02*
X42068750Y-60325000D01*
X42068750Y-60325000D02*
X42068750Y-62103000D01*
X42068750Y-71247000D02*
X42068750Y-73025000D01*
X42068750Y-73025000D02*
X40290750Y-73025000D01*
X31146750Y-73025000D02*
X29368750Y-73025000D01*
X29368750Y-73025000D02*
X29368750Y-71247000D01*
X29368750Y-62103000D02*
X29368750Y-60325000D01*
X26987500Y-41275000D02*
X28765500Y-41275000D01*
X37909500Y-41275000D02*
X39687500Y-41275000D01*
X39687500Y-41275000D02*
X39687500Y-43053000D01*
X39687500Y-52197000D02*
X39687500Y-53975000D01*
X39687500Y-53975000D02*
X37909500Y-53975000D01*
X28765500Y-53975000D02*
X26987500Y-53975000D01*
X26987500Y-53975000D02*
X26987500Y-52197000D01*
X26987500Y-43053000D02*
X26987500Y-41275000D01*
X22225000Y-22225000D02*
X24003000Y-22225000D01*
X33147000Y-22225000D02*
X34925000Y-22225000D01*
X34925000Y-22225000D02*
X34925000Y-24003000D01*
X34925000Y-33147000D02*
X34925000Y-34925000D01*
X34925000Y-34925000D02*
X33147000Y-34925000D01*
X24003000Y-34925000D02*
X22225000Y-34925000D01*
X22225000Y-34925000D02*
X22225000Y-33147000D01*
X22225000Y-24003000D02*
X22225000Y-22225000D01*
X41275000Y-22225000D02*
X43053000Y-22225000D01*
X52197000Y-22225000D02*
X53975000Y-22225000D01*
X53975000Y-22225000D02*
X53975000Y-24003000D01*
X53975000Y-33147000D02*
X53975000Y-34925000D01*
X53975000Y-34925000D02*
X52197000Y-34925000D01*
X43053000Y-34925000D02*
X41275000Y-34925000D01*
X41275000Y-34925000D02*
X41275000Y-33147000D01*
X41275000Y-24003000D02*
X41275000Y-22225000D01*
X265112500Y-60325000D02*
X266890500Y-60325000D01*
X276034500Y-60325000D02*
X277812500Y-60325000D01*
X277812500Y-60325000D02*
X277812500Y-62103000D01*
X277812500Y-71247000D02*
X277812500Y-73025000D01*
X277812500Y-73025000D02*
X276034500Y-73025000D01*
X266890500Y-73025000D02*
X265112500Y-73025000D01*
X265112500Y-73025000D02*
X265112500Y-71247000D01*
X265112500Y-62103000D02*
X265112500Y-60325000D01*
X260350000Y-41275000D02*
X262128000Y-41275000D01*
X271272000Y-41275000D02*
X273050000Y-41275000D01*
X273050000Y-41275000D02*
X273050000Y-43053000D01*
X273050000Y-52197000D02*
X273050000Y-53975000D01*
X273050000Y-53975000D02*
X271272000Y-53975000D01*
X262128000Y-53975000D02*
X260350000Y-53975000D01*
X260350000Y-53975000D02*
X260350000Y-52197000D01*
X260350000Y-43053000D02*
X260350000Y-41275000D01*
X250825000Y-22225000D02*
X252603000Y-22225000D01*
X261747000Y-22225000D02*
X263525000Y-22225000D01*
X263525000Y-22225000D02*
X263525000Y-24003000D01*
X263525000Y-33147000D02*
X263525000Y-34925000D01*
X263525000Y-34925000D02*
X261747000Y-34925000D01*
X252603000Y-34925000D02*
X250825000Y-34925000D01*
X250825000Y-34925000D02*
X250825000Y-33147000D01*
X250825000Y-24003000D02*
X250825000Y-22225000D01*
X236537500Y-79375000D02*
X238315500Y-79375000D01*
X247459500Y-79375000D02*
X249237500Y-79375000D01*
X249237500Y-79375000D02*
X249237500Y-81153000D01*
X249237500Y-90297000D02*
X249237500Y-92075000D01*
X249237500Y-92075000D02*
X247459500Y-92075000D01*
X238315500Y-92075000D02*
X236537500Y-92075000D01*
X236537500Y-92075000D02*
X236537500Y-90297000D01*
X236537500Y-81153000D02*
X236537500Y-79375000D01*
X246062500Y-60325000D02*
X247840500Y-60325000D01*
X256984500Y-60325000D02*
X258762500Y-60325000D01*
X258762500Y-60325000D02*
X258762500Y-62103000D01*
X258762500Y-71247000D02*
X258762500Y-73025000D01*
X258762500Y-73025000D02*
X256984500Y-73025000D01*
X247840500Y-73025000D02*
X246062500Y-73025000D01*
X246062500Y-73025000D02*
X246062500Y-71247000D01*
X246062500Y-62103000D02*
X246062500Y-60325000D01*
X241300000Y-41275000D02*
X243078000Y-41275000D01*
X252222000Y-41275000D02*
X254000000Y-41275000D01*
X254000000Y-41275000D02*
X254000000Y-43053000D01*
X254000000Y-52197000D02*
X254000000Y-53975000D01*
X254000000Y-53975000D02*
X252222000Y-53975000D01*
X243078000Y-53975000D02*
X241300000Y-53975000D01*
X241300000Y-53975000D02*
X241300000Y-52197000D01*
X241300000Y-43053000D02*
X241300000Y-41275000D01*
X231775000Y-22225000D02*
X233553000Y-22225000D01*
X242697000Y-22225000D02*
X244475000Y-22225000D01*
X244475000Y-22225000D02*
X244475000Y-24003000D01*
X244475000Y-33147000D02*
X244475000Y-34925000D01*
X244475000Y-34925000D02*
X242697000Y-34925000D01*
X233553000Y-34925000D02*
X231775000Y-34925000D01*
X231775000Y-34925000D02*
X231775000Y-33147000D01*
X231775000Y-24003000D02*
X231775000Y-22225000D01*
X217487500Y-79375000D02*
X219265500Y-79375000D01*
X228409500Y-79375000D02*
X230187500Y-79375000D01*
X230187500Y-79375000D02*
X230187500Y-81153000D01*
X230187500Y-90297000D02*
X230187500Y-92075000D01*
X230187500Y-92075000D02*
X228409500Y-92075000D01*
X219265500Y-92075000D02*
X217487500Y-92075000D01*
X217487500Y-92075000D02*
X217487500Y-90297000D01*
X217487500Y-81153000D02*
X217487500Y-79375000D01*
X227012500Y-60325000D02*
X228790500Y-60325000D01*
X237934500Y-60325000D02*
X239712500Y-60325000D01*
X239712500Y-60325000D02*
X239712500Y-62103000D01*
X239712500Y-71247000D02*
X239712500Y-73025000D01*
X239712500Y-73025000D02*
X237934500Y-73025000D01*
X228790500Y-73025000D02*
X227012500Y-73025000D01*
X227012500Y-73025000D02*
X227012500Y-71247000D01*
X227012500Y-62103000D02*
X227012500Y-60325000D01*
X222250000Y-41275000D02*
X224028000Y-41275000D01*
X233172000Y-41275000D02*
X234950000Y-41275000D01*
X234950000Y-41275000D02*
X234950000Y-43053000D01*
X234950000Y-52197000D02*
X234950000Y-53975000D01*
X234950000Y-53975000D02*
X233172000Y-53975000D01*
X224028000Y-53975000D02*
X222250000Y-53975000D01*
X222250000Y-53975000D02*
X222250000Y-52197000D01*
X222250000Y-43053000D02*
X222250000Y-41275000D01*
X212725000Y-22225000D02*
X214503000Y-22225000D01*
X223647000Y-22225000D02*
X225425000Y-22225000D01*
X225425000Y-22225000D02*
X225425000Y-24003000D01*
X225425000Y-33147000D02*
X225425000Y-34925000D01*
X225425000Y-34925000D02*
X223647000Y-34925000D01*
X214503000Y-34925000D02*
X212725000Y-34925000D01*
X212725000Y-34925000D02*
X212725000Y-33147000D01*
X212725000Y-24003000D02*
X212725000Y-22225000D01*
X193675000Y-22225000D02*
X195453000Y-22225000D01*
X204597000Y-22225000D02*
X206375000Y-22225000D01*
X206375000Y-22225000D02*
X206375000Y-24003000D01*
X206375000Y-33147000D02*
X206375000Y-34925000D01*
X206375000Y-34925000D02*
X204597000Y-34925000D01*
X195453000Y-34925000D02*
X193675000Y-34925000D01*
X193675000Y-34925000D02*
X193675000Y-33147000D01*
X193675000Y-24003000D02*
X193675000Y-22225000D01*
X174625000Y-22225000D02*
X176403000Y-22225000D01*
X185547000Y-22225000D02*
X187325000Y-22225000D01*
X187325000Y-22225000D02*
X187325000Y-24003000D01*
X187325000Y-33147000D02*
X187325000Y-34925000D01*
X187325000Y-34925000D02*
X185547000Y-34925000D01*
X176403000Y-34925000D02*
X174625000Y-34925000D01*
X174625000Y-34925000D02*
X174625000Y-33147000D01*
X174625000Y-24003000D02*
X174625000Y-22225000D01*
X155575000Y-22225000D02*
X157353000Y-22225000D01*
X166497000Y-22225000D02*
X168275000Y-22225000D01*
X168275000Y-22225000D02*
X168275000Y-24003000D01*
X168275000Y-33147000D02*
X168275000Y-34925000D01*
X168275000Y-34925000D02*
X166497000Y-34925000D01*
X157353000Y-34925000D02*
X155575000Y-34925000D01*
X155575000Y-34925000D02*
X155575000Y-33147000D01*
X155575000Y-24003000D02*
X155575000Y-22225000D01*
X136525000Y-22225000D02*
X138303000Y-22225000D01*
X147447000Y-22225000D02*
X149225000Y-22225000D01*
X149225000Y-22225000D02*
X149225000Y-24003000D01*
X149225000Y-33147000D02*
X149225000Y-34925000D01*
X149225000Y-34925000D02*
X147447000Y-34925000D01*
X138303000Y-34925000D02*
X136525000Y-34925000D01*
X136525000Y-34925000D02*
X136525000Y-33147000D01*
X136525000Y-24003000D02*
X136525000Y-22225000D01*
X117475000Y-22225000D02*
X119253000Y-22225000D01*
X128397000Y-22225000D02*
X130175000Y-22225000D01*
X130175000Y-22225000D02*
X130175000Y-24003000D01*
X130175000Y-33147000D02*
X130175000Y-34925000D01*
X130175000Y-34925000D02*
X128397000Y-34925000D01*
X119253000Y-34925000D02*
X117475000Y-34925000D01*
X117475000Y-34925000D02*
X117475000Y-33147000D01*
X117475000Y-24003000D02*
X117475000Y-22225000D01*
X98425000Y-22225000D02*
X100203000Y-22225000D01*
X109347000Y-22225000D02*
X111125000Y-22225000D01*
X111125000Y-22225000D02*
X111125000Y-24003000D01*
X111125000Y-33147000D02*
X111125000Y-34925000D01*
X111125000Y-34925000D02*
X109347000Y-34925000D01*
X100203000Y-34925000D02*
X98425000Y-34925000D01*
X98425000Y-34925000D02*
X98425000Y-33147000D01*
X98425000Y-24003000D02*
X98425000Y-22225000D01*
X79375000Y-22225000D02*
X81153000Y-22225000D01*
X90297000Y-22225000D02*
X92075000Y-22225000D01*
X92075000Y-22225000D02*
X92075000Y-24003000D01*
X92075000Y-33147000D02*
X92075000Y-34925000D01*
X92075000Y-34925000D02*
X90297000Y-34925000D01*
X81153000Y-34925000D02*
X79375000Y-34925000D01*
X79375000Y-34925000D02*
X79375000Y-33147000D01*
X79375000Y-24003000D02*
X79375000Y-22225000D01*
X60325000Y-22225000D02*
X62103000Y-22225000D01*
X71247000Y-22225000D02*
X73025000Y-22225000D01*
X73025000Y-22225000D02*
X73025000Y-24003000D01*
X73025000Y-33147000D02*
X73025000Y-34925000D01*
X73025000Y-34925000D02*
X71247000Y-34925000D01*
X62103000Y-34925000D02*
X60325000Y-34925000D01*
X60325000Y-34925000D02*
X60325000Y-33147000D01*
X60325000Y-24003000D02*
X60325000Y-22225000D01*
X198437500Y-79375000D02*
X200215500Y-79375000D01*
X209359500Y-79375000D02*
X211137500Y-79375000D01*
X211137500Y-79375000D02*
X211137500Y-81153000D01*
X211137500Y-90297000D02*
X211137500Y-92075000D01*
X211137500Y-92075000D02*
X209359500Y-92075000D01*
X200215500Y-92075000D02*
X198437500Y-92075000D01*
X198437500Y-92075000D02*
X198437500Y-90297000D01*
X198437500Y-81153000D02*
X198437500Y-79375000D01*
X179387500Y-79375000D02*
X181165500Y-79375000D01*
X190309500Y-79375000D02*
X192087500Y-79375000D01*
X192087500Y-79375000D02*
X192087500Y-81153000D01*
X192087500Y-90297000D02*
X192087500Y-92075000D01*
X192087500Y-92075000D02*
X190309500Y-92075000D01*
X181165500Y-92075000D02*
X179387500Y-92075000D01*
X179387500Y-92075000D02*
X179387500Y-90297000D01*
X179387500Y-81153000D02*
X179387500Y-79375000D01*
X160337500Y-79375000D02*
X162115500Y-79375000D01*
X171259500Y-79375000D02*
X173037500Y-79375000D01*
X173037500Y-79375000D02*
X173037500Y-81153000D01*
X173037500Y-90297000D02*
X173037500Y-92075000D01*
X173037500Y-92075000D02*
X171259500Y-92075000D01*
X162115500Y-92075000D02*
X160337500Y-92075000D01*
X160337500Y-92075000D02*
X160337500Y-90297000D01*
X160337500Y-81153000D02*
X160337500Y-79375000D01*
X141287500Y-79375000D02*
X143065500Y-79375000D01*
X152209500Y-79375000D02*
X153987500Y-79375000D01*
X153987500Y-79375000D02*
X153987500Y-81153000D01*
X153987500Y-90297000D02*
X153987500Y-92075000D01*
X153987500Y-92075000D02*
X152209500Y-92075000D01*
X143065500Y-92075000D02*
X141287500Y-92075000D01*
X141287500Y-92075000D02*
X141287500Y-90297000D01*
X141287500Y-81153000D02*
X141287500Y-79375000D01*
X122237500Y-79375000D02*
X124015500Y-79375000D01*
X133159500Y-79375000D02*
X134937500Y-79375000D01*
X134937500Y-79375000D02*
X134937500Y-81153000D01*
X134937500Y-90297000D02*
X134937500Y-92075000D01*
X134937500Y-92075000D02*
X133159500Y-92075000D01*
X124015500Y-92075000D02*
X122237500Y-92075000D01*
X122237500Y-92075000D02*
X122237500Y-90297000D01*
X122237500Y-81153000D02*
X122237500Y-79375000D01*
X103187500Y-79375000D02*
X104965500Y-79375000D01*
X114109500Y-79375000D02*
X115887500Y-79375000D01*
X115887500Y-79375000D02*
X115887500Y-81153000D01*
X115887500Y-90297000D02*
X115887500Y-92075000D01*
X115887500Y-92075000D02*
X114109500Y-92075000D01*
X104965500Y-92075000D02*
X103187500Y-92075000D01*
X103187500Y-92075000D02*
X103187500Y-90297000D01*
X103187500Y-81153000D02*
X103187500Y-79375000D01*
X84137500Y-79375000D02*
X85915500Y-79375000D01*
X95059500Y-79375000D02*
X96837500Y-79375000D01*
X96837500Y-79375000D02*
X96837500Y-81153000D01*
X96837500Y-90297000D02*
X96837500Y-92075000D01*
X96837500Y-92075000D02*
X95059500Y-92075000D01*
X85915500Y-92075000D02*
X84137500Y-92075000D01*
X84137500Y-92075000D02*
X84137500Y-90297000D01*
X84137500Y-81153000D02*
X84137500Y-79375000D01*
X65087500Y-79375000D02*
X66865500Y-79375000D01*
X76009500Y-79375000D02*
X77787500Y-79375000D01*
X77787500Y-79375000D02*
X77787500Y-81153000D01*
X77787500Y-90297000D02*
X77787500Y-92075000D01*
X77787500Y-92075000D02*
X76009500Y-92075000D01*
X66865500Y-92075000D02*
X65087500Y-92075000D01*
X65087500Y-92075000D02*
X65087500Y-90297000D01*
X65087500Y-81153000D02*
X65087500Y-79375000D01*
X46037500Y-79375000D02*
X47815500Y-79375000D01*
X56959500Y-79375000D02*
X58737500Y-79375000D01*
X58737500Y-79375000D02*
X58737500Y-81153000D01*
X58737500Y-90297000D02*
X58737500Y-92075000D01*
X58737500Y-92075000D02*
X56959500Y-92075000D01*
X47815500Y-92075000D02*
X46037500Y-92075000D01*
X46037500Y-92075000D02*
X46037500Y-90297000D01*
X46037500Y-81153000D02*
X46037500Y-79375000D01*
X207962500Y-60325000D02*
X209740500Y-60325000D01*
X218884500Y-60325000D02*
X220662500Y-60325000D01*
X220662500Y-60325000D02*
X220662500Y-62103000D01*
X220662500Y-71247000D02*
X220662500Y-73025000D01*
X220662500Y-73025000D02*
X218884500Y-73025000D01*
X209740500Y-73025000D02*
X207962500Y-73025000D01*
X207962500Y-73025000D02*
X207962500Y-71247000D01*
X207962500Y-62103000D02*
X207962500Y-60325000D01*
X188912500Y-60325000D02*
X190690500Y-60325000D01*
X199834500Y-60325000D02*
X201612500Y-60325000D01*
X201612500Y-60325000D02*
X201612500Y-62103000D01*
X201612500Y-71247000D02*
X201612500Y-73025000D01*
X201612500Y-73025000D02*
X199834500Y-73025000D01*
X190690500Y-73025000D02*
X188912500Y-73025000D01*
X188912500Y-73025000D02*
X188912500Y-71247000D01*
X188912500Y-62103000D02*
X188912500Y-60325000D01*
X169862500Y-60325000D02*
X171640500Y-60325000D01*
X180784500Y-60325000D02*
X182562500Y-60325000D01*
X182562500Y-60325000D02*
X182562500Y-62103000D01*
X182562500Y-71247000D02*
X182562500Y-73025000D01*
X182562500Y-73025000D02*
X180784500Y-73025000D01*
X171640500Y-73025000D02*
X169862500Y-73025000D01*
X169862500Y-73025000D02*
X169862500Y-71247000D01*
X169862500Y-62103000D02*
X169862500Y-60325000D01*
X150812500Y-60325000D02*
X152590500Y-60325000D01*
X161734500Y-60325000D02*
X163512500Y-60325000D01*
X163512500Y-60325000D02*
X163512500Y-62103000D01*
X163512500Y-71247000D02*
X163512500Y-73025000D01*
X163512500Y-73025000D02*
X161734500Y-73025000D01*
X152590500Y-73025000D02*
X150812500Y-73025000D01*
X150812500Y-73025000D02*
X150812500Y-71247000D01*
X150812500Y-62103000D02*
X150812500Y-60325000D01*
X131762500Y-60325000D02*
X133540500Y-60325000D01*
X142684500Y-60325000D02*
X144462500Y-60325000D01*
X144462500Y-60325000D02*
X144462500Y-62103000D01*
X144462500Y-71247000D02*
X144462500Y-73025000D01*
X144462500Y-73025000D02*
X142684500Y-73025000D01*
X133540500Y-73025000D02*
X131762500Y-73025000D01*
X131762500Y-73025000D02*
X131762500Y-71247000D01*
X131762500Y-62103000D02*
X131762500Y-60325000D01*
X112712500Y-60325000D02*
X114490500Y-60325000D01*
X123634500Y-60325000D02*
X125412500Y-60325000D01*
X125412500Y-60325000D02*
X125412500Y-62103000D01*
X125412500Y-71247000D02*
X125412500Y-73025000D01*
X125412500Y-73025000D02*
X123634500Y-73025000D01*
X114490500Y-73025000D02*
X112712500Y-73025000D01*
X112712500Y-73025000D02*
X112712500Y-71247000D01*
X112712500Y-62103000D02*
X112712500Y-60325000D01*
X93662500Y-60325000D02*
X95440500Y-60325000D01*
X104584500Y-60325000D02*
X106362500Y-60325000D01*
X106362500Y-60325000D02*
X106362500Y-62103000D01*
X106362500Y-71247000D02*
X106362500Y-73025000D01*
X106362500Y-73025000D02*
X104584500Y-73025000D01*
X95440500Y-73025000D02*
X93662500Y-73025000D01*
X93662500Y-73025000D02*
X93662500Y-71247000D01*
X93662500Y-62103000D02*
X93662500Y-60325000D01*
X74612500Y-60325000D02*
X76390500Y-60325000D01*
X85534500Y-60325000D02*
X87312500Y-60325000D01*
X87312500Y-60325000D02*
X87312500Y-62103000D01*
X87312500Y-71247000D02*
X87312500Y-73025000D01*
X87312500Y-73025000D02*
X85534500Y-73025000D01*
X76390500Y-73025000D02*
X74612500Y-73025000D01*
X74612500Y-73025000D02*
X74612500Y-71247000D01*
X74612500Y-62103000D02*
X74612500Y-60325000D01*
X55562500Y-60325000D02*
X57340500Y-60325000D01*
X66484500Y-60325000D02*
X68262500Y-60325000D01*
X68262500Y-60325000D02*
X68262500Y-62103000D01*
X68262500Y-71247000D02*
X68262500Y-73025000D01*
X68262500Y-73025000D02*
X66484500Y-73025000D01*
X57340500Y-73025000D02*
X55562500Y-73025000D01*
X55562500Y-73025000D02*
X55562500Y-71247000D01*
X55562500Y-62103000D02*
X55562500Y-60325000D01*
X203200000Y-41275000D02*
X204978000Y-41275000D01*
X214122000Y-41275000D02*
X215900000Y-41275000D01*
X215900000Y-41275000D02*
X215900000Y-43053000D01*
X215900000Y-52197000D02*
X215900000Y-53975000D01*
X215900000Y-53975000D02*
X214122000Y-53975000D01*
X204978000Y-53975000D02*
X203200000Y-53975000D01*
X203200000Y-53975000D02*
X203200000Y-52197000D01*
X203200000Y-43053000D02*
X203200000Y-41275000D01*
X184150000Y-41275000D02*
X185928000Y-41275000D01*
X195072000Y-41275000D02*
X196850000Y-41275000D01*
X196850000Y-41275000D02*
X196850000Y-43053000D01*
X196850000Y-52197000D02*
X196850000Y-53975000D01*
X196850000Y-53975000D02*
X195072000Y-53975000D01*
X185928000Y-53975000D02*
X184150000Y-53975000D01*
X184150000Y-53975000D02*
X184150000Y-52197000D01*
X184150000Y-43053000D02*
X184150000Y-41275000D01*
X165100000Y-41275000D02*
X166878000Y-41275000D01*
X176022000Y-41275000D02*
X177800000Y-41275000D01*
X177800000Y-41275000D02*
X177800000Y-43053000D01*
X177800000Y-52197000D02*
X177800000Y-53975000D01*
X177800000Y-53975000D02*
X176022000Y-53975000D01*
X166878000Y-53975000D02*
X165100000Y-53975000D01*
X165100000Y-53975000D02*
X165100000Y-52197000D01*
X165100000Y-43053000D02*
X165100000Y-41275000D01*
X146050000Y-41275000D02*
X147828000Y-41275000D01*
X156972000Y-41275000D02*
X158750000Y-41275000D01*
X158750000Y-41275000D02*
X158750000Y-43053000D01*
X158750000Y-52197000D02*
X158750000Y-53975000D01*
X158750000Y-53975000D02*
X156972000Y-53975000D01*
X147828000Y-53975000D02*
X146050000Y-53975000D01*
X146050000Y-53975000D02*
X146050000Y-52197000D01*
X146050000Y-43053000D02*
X146050000Y-41275000D01*
X127000000Y-41275000D02*
X128778000Y-41275000D01*
X137922000Y-41275000D02*
X139700000Y-41275000D01*
X139700000Y-41275000D02*
X139700000Y-43053000D01*
X139700000Y-52197000D02*
X139700000Y-53975000D01*
X139700000Y-53975000D02*
X137922000Y-53975000D01*
X128778000Y-53975000D02*
X127000000Y-53975000D01*
X127000000Y-53975000D02*
X127000000Y-52197000D01*
X127000000Y-43053000D02*
X127000000Y-41275000D01*
X107950000Y-41275000D02*
X109728000Y-41275000D01*
X118872000Y-41275000D02*
X120650000Y-41275000D01*
X120650000Y-41275000D02*
X120650000Y-43053000D01*
X120650000Y-52197000D02*
X120650000Y-53975000D01*
X120650000Y-53975000D02*
X118872000Y-53975000D01*
X109728000Y-53975000D02*
X107950000Y-53975000D01*
X107950000Y-53975000D02*
X107950000Y-52197000D01*
X107950000Y-43053000D02*
X107950000Y-41275000D01*
X88900000Y-41275000D02*
X90678000Y-41275000D01*
X99822000Y-41275000D02*
X101600000Y-41275000D01*
X101600000Y-41275000D02*
X101600000Y-43053000D01*
X101600000Y-52197000D02*
X101600000Y-53975000D01*
X101600000Y-53975000D02*
X99822000Y-53975000D01*
X90678000Y-53975000D02*
X88900000Y-53975000D01*
X88900000Y-53975000D02*
X88900000Y-52197000D01*
X88900000Y-43053000D02*
X88900000Y-41275000D01*
X69850000Y-41275000D02*
X71628000Y-41275000D01*
X80772000Y-41275000D02*
X82550000Y-41275000D01*
X82550000Y-41275000D02*
X82550000Y-43053000D01*
X82550000Y-52197000D02*
X82550000Y-53975000D01*
X82550000Y-53975000D02*
X80772000Y-53975000D01*
X71628000Y-53975000D02*
X69850000Y-53975000D01*
X69850000Y-53975000D02*
X69850000Y-52197000D01*
X69850000Y-43053000D02*
X69850000Y-41275000D01*
X50800000Y-41275000D02*
X52578000Y-41275000D01*
X61722000Y-41275000D02*
X63500000Y-41275000D01*
X63500000Y-41275000D02*
X63500000Y-43053000D01*
X63500000Y-52197000D02*
X63500000Y-53975000D01*
X63500000Y-53975000D02*
X61722000Y-53975000D01*
X52578000Y-53975000D02*
X50800000Y-53975000D01*
X50800000Y-53975000D02*
X50800000Y-52197000D01*
X50800000Y-43053000D02*
X50800000Y-41275000D01*
X286543750Y-98425000D02*
X288321750Y-98425000D01*
X297465750Y-98425000D02*
X299243750Y-98425000D01*
X299243750Y-98425000D02*
X299243750Y-100203000D01*
X299243750Y-109347000D02*
X299243750Y-111125000D01*
X299243750Y-111125000D02*
X297465750Y-111125000D01*
X288321750Y-111125000D02*
X286543750Y-111125000D01*
X286543750Y-111125000D02*
X286543750Y-109347000D01*
X286543750Y-100203000D02*
X286543750Y-98425000D01*
X262731250Y-98425000D02*
X264509250Y-98425000D01*
X273653250Y-98425000D02*
X275431250Y-98425000D01*
X275431250Y-98425000D02*
X275431250Y-100203000D01*
X275431250Y-109347000D02*
X275431250Y-111125000D01*
X275431250Y-111125000D02*
X273653250Y-111125000D01*
X264509250Y-111125000D02*
X262731250Y-111125000D01*
X262731250Y-111125000D02*
X262731250Y-109347000D01*
X262731250Y-100203000D02*
X262731250Y-98425000D01*
X238918750Y-98425000D02*
X240696750Y-98425000D01*
X249840750Y-98425000D02*
X251618750Y-98425000D01*
X251618750Y-98425000D02*
X251618750Y-100203000D01*
X251618750Y-109347000D02*
X251618750Y-111125000D01*
X251618750Y-111125000D02*
X249840750Y-111125000D01*
X240696750Y-111125000D02*
X238918750Y-111125000D01*
X238918750Y-111125000D02*
X238918750Y-109347000D01*
X238918750Y-100203000D02*
X238918750Y-98425000D01*
X215106250Y-98425000D02*
X216884250Y-98425000D01*
X226028250Y-98425000D02*
X227806250Y-98425000D01*
X227806250Y-98425000D02*
X227806250Y-100203000D01*
X227806250Y-109347000D02*
X227806250Y-111125000D01*
X227806250Y-111125000D02*
X226028250Y-111125000D01*
X216884250Y-111125000D02*
X215106250Y-111125000D01*
X215106250Y-111125000D02*
X215106250Y-109347000D01*
X215106250Y-100203000D02*
X215106250Y-98425000D01*
X72231250Y-98425000D02*
X74009250Y-98425000D01*
X83153250Y-98425000D02*
X84931250Y-98425000D01*
X84931250Y-98425000D02*
X84931250Y-100203000D01*
X84931250Y-109347000D02*
X84931250Y-111125000D01*
X84931250Y-111125000D02*
X83153250Y-111125000D01*
X74009250Y-111125000D02*
X72231250Y-111125000D01*
X72231250Y-111125000D02*
X72231250Y-109347000D01*
X72231250Y-100203000D02*
X72231250Y-98425000D01*
X48418750Y-98425000D02*
X50196750Y-98425000D01*
X59340750Y-98425000D02*
X61118750Y-98425000D01*
X61118750Y-98425000D02*
X61118750Y-100203000D01*
X61118750Y-109347000D02*
X61118750Y-111125000D01*
X61118750Y-111125000D02*
X59340750Y-111125000D01*
X50196750Y-111125000D02*
X48418750Y-111125000D01*
X48418750Y-111125000D02*
X48418750Y-109347000D01*
X48418750Y-100203000D02*
X48418750Y-98425000D01*
X24606250Y-98425000D02*
X26384250Y-98425000D01*
X35528250Y-98425000D02*
X37306250Y-98425000D01*
X37306250Y-98425000D02*
X37306250Y-100203000D01*
X37306250Y-109347000D02*
X37306250Y-111125000D01*
X37306250Y-111125000D02*
X35528250Y-111125000D01*
X26384250Y-111125000D02*
X24606250Y-111125000D01*
X24606250Y-111125000D02*
X24606250Y-109347000D01*
X24606250Y-100203000D02*
X24606250Y-98425000D01*
X24606250Y-79375000D02*
X26384250Y-79375000D01*
X35528250Y-79375000D02*
X37306250Y-79375000D01*
X37306250Y-79375000D02*
X37306250Y-81153000D01*
X37306250Y-90297000D02*
X37306250Y-92075000D01*
X37306250Y-92075000D02*
X35528250Y-92075000D01*
X26384250Y-92075000D02*
X24606250Y-92075000D01*
X24606250Y-92075000D02*
X24606250Y-90297000D01*
X24606250Y-81153000D02*
X24606250Y-79375000D01*
M02*
