M48
;DRILL file {KiCad 4.0.5} date 02/06/17 19:39:13
;FORMAT={-:-/ absolute / inch / decimal}
FMAT,2
INCH,TZ
T1C0.067
T2C0.120
T3C0.157
%
G90
G05
M72
T1
X0.925Y-1.125
X1.0188Y-3.375
X1.0188Y-4.125
X1.1125Y-1.875
X1.2063Y-2.625
X1.325Y-1.125
X1.4187Y-3.375
X1.4187Y-4.125
X1.5125Y-1.875
X1.6062Y-2.625
X1.675Y-1.125
X1.8625Y-3.375
X1.9563Y-4.125
X2.05Y-1.875
X2.075Y-1.125
X2.2375Y-2.625
X2.2625Y-3.375
X2.3562Y-4.125
X2.425Y-1.125
X2.45Y-1.875
X2.6125Y-3.375
X2.6375Y-2.625
X2.8Y-1.875
X2.825Y-1.125
X2.8937Y-4.125
X2.9875Y-2.625
X3.0125Y-3.375
X3.175Y-1.125
X3.2Y-1.875
X3.2937Y-4.125
X3.3625Y-3.375
X3.3875Y-2.625
X3.55Y-1.875
X3.575Y-1.125
X3.7375Y-2.625
X3.7625Y-3.375
X3.925Y-1.125
X3.95Y-1.875
X4.1125Y-3.375
X4.1375Y-2.625
X4.3Y-1.875
X4.325Y-1.125
X4.4875Y-2.625
X4.5125Y-3.375
X4.675Y-1.125
X4.7Y-1.875
X4.8625Y-3.375
X4.8875Y-2.625
X5.05Y-1.875
X5.075Y-1.125
X5.2375Y-2.625
X5.2625Y-3.375
X5.425Y-1.125
X5.45Y-1.875
X5.6125Y-3.375
X5.6375Y-2.625
X5.7062Y-4.125
X5.8Y-1.875
X5.825Y-1.125
X5.9875Y-2.625
X6.0125Y-3.375
X6.1063Y-4.125
X6.175Y-1.125
X6.2Y-1.875
X6.3625Y-3.375
X6.3875Y-2.625
X6.55Y-1.875
X6.575Y-1.125
X6.7375Y-2.625
X6.7625Y-3.375
X6.925Y-1.125
X6.95Y-1.875
X7.1125Y-3.375
X7.1375Y-2.625
X7.3Y-1.875
X7.325Y-1.125
X7.4875Y-2.625
X7.5125Y-3.375
X7.675Y-1.125
X7.7Y-1.875
X7.8625Y-3.375
X7.8875Y-2.625
X8.05Y-1.875
X8.075Y-1.125
X8.2375Y-2.625
X8.2625Y-3.375
X8.425Y-1.125
X8.45Y-1.875
X8.5187Y-4.125
X8.6125Y-3.375
X8.6375Y-2.625
X8.8Y-1.875
X8.825Y-1.125
X8.9187Y-4.125
X8.9875Y-2.625
X9.0125Y-3.375
X9.175Y-1.125
X9.2Y-1.875
X9.3625Y-3.375
X9.3875Y-2.625
X9.4562Y-4.125
X9.55Y-1.875
X9.575Y-1.125
X9.7375Y-2.625
X9.7625Y-3.375
X9.8562Y-4.125
X9.925Y-1.125
X9.95Y-1.875
X10.1375Y-2.625
X10.3Y-1.875
X10.325Y-1.125
X10.3937Y-4.125
X10.4875Y-2.625
X10.7Y-1.875
X10.7687Y-3.375
X10.7937Y-4.125
X10.8875Y-2.625
X11.05Y-1.125
X11.1687Y-3.375
X11.3312Y-4.125
X11.45Y-1.125
X11.5312Y-2.05
X11.5312Y-2.45
X11.7312Y-4.125
T2
X3.9362Y-4.4
X7.8762Y-4.4
X10.4987Y-3.1
X10.78Y-0.85
X11.2562Y-1.78
X11.2562Y-2.72
X11.4387Y-3.1
X11.72Y-0.85
T3
X1.125Y-1.125
X1.2188Y-3.375
X1.2188Y-4.125
X1.3125Y-1.875
X1.4062Y-2.625
X1.875Y-1.125
X2.0625Y-3.375
X2.1562Y-4.125
X2.25Y-1.875
X2.4375Y-2.625
X2.625Y-1.125
X2.8125Y-3.375
X3.Y-1.875
X3.0938Y-4.125
X3.1875Y-2.625
X3.375Y-1.125
X3.5625Y-3.375
X3.75Y-1.875
X3.9362Y-3.8
X3.9375Y-2.625
X4.125Y-1.125
X4.3125Y-3.375
X4.5Y-1.875
X4.6875Y-2.625
X4.875Y-1.125
X5.0625Y-3.375
X5.25Y-1.875
X5.4375Y-2.625
X5.625Y-1.125
X5.8125Y-3.375
X5.9062Y-4.125
X6.Y-1.875
X6.1875Y-2.625
X6.375Y-1.125
X6.5625Y-3.375
X6.75Y-1.875
X6.9375Y-2.625
X7.125Y-1.125
X7.3125Y-3.375
X7.5Y-1.875
X7.6875Y-2.625
X7.875Y-1.125
X7.8762Y-3.8
X8.0625Y-3.375
X8.25Y-1.875
X8.4375Y-2.625
X8.625Y-1.125
X8.7188Y-4.125
X8.8125Y-3.375
X9.Y-1.875
X9.1875Y-2.625
X9.375Y-1.125
X9.5625Y-3.375
X9.6562Y-4.125
X9.75Y-1.875
X9.9375Y-2.625
X10.125Y-1.125
X10.4987Y-3.7
X10.5Y-1.875
X10.5938Y-4.125
X10.6875Y-2.625
X10.78Y-1.45
X10.9688Y-3.375
X11.25Y-1.125
X11.4387Y-3.7
X11.5312Y-2.25
X11.5312Y-4.125
X11.72Y-1.45
X11.8562Y-1.78
X11.8562Y-2.72
T0
M30
