G04 #@! TF.FileFunction,Soldermask,Top*
%FSLAX46Y46*%
G04 Gerber Fmt 4.6, Leading zero omitted, Abs format (unit mm)*
G04 Created by KiCad (PCBNEW 4.0.5) date 02/06/17 19:39:07*
%MOMM*%
%LPD*%
G01*
G04 APERTURE LIST*
%ADD10C,0.100000*%
%ADD11C,2.051000*%
%ADD12R,2.051000X2.051000*%
%ADD13C,2.686000*%
%ADD14C,6.500000*%
%ADD15R,2.152600X2.152600*%
%ADD16C,2.152600*%
G04 APERTURE END LIST*
D10*
D11*
X38417500Y-38100000D03*
D12*
X28257500Y-38100000D03*
D13*
X288290000Y-23495000D03*
X281940000Y-26035000D03*
X287813750Y-54610000D03*
X290353750Y-60960000D03*
X281146250Y-80645000D03*
X274796250Y-83185000D03*
X152558750Y-99695000D03*
X146208750Y-102235000D03*
X38258750Y-61595000D03*
X31908750Y-64135000D03*
X35877500Y-42545000D03*
X29527500Y-45085000D03*
X31115000Y-23495000D03*
X24765000Y-26035000D03*
D14*
X44425000Y-47625000D03*
X147637500Y-66675000D03*
X279411000Y-47625000D03*
X209725000Y-104775000D03*
D15*
X109855000Y-94773750D03*
D16*
X112395000Y-94773750D03*
X114935000Y-94773750D03*
X117475000Y-94773750D03*
X120015000Y-94773750D03*
X122555000Y-94773750D03*
X125095000Y-94773750D03*
X127635000Y-94773750D03*
X130175000Y-94773750D03*
X132715000Y-94773750D03*
X135255000Y-94773750D03*
X137795000Y-94773750D03*
X137795000Y-97313750D03*
X137795000Y-99853750D03*
X137795000Y-102393750D03*
X137795000Y-104933750D03*
X137795000Y-107473750D03*
X137795000Y-110013750D03*
X135255000Y-110013750D03*
X132715000Y-110013750D03*
X130175000Y-110013750D03*
X127635000Y-110013750D03*
X125095000Y-110013750D03*
X122555000Y-110013750D03*
X120015000Y-110013750D03*
X117475000Y-110013750D03*
X114935000Y-110013750D03*
X112395000Y-110013750D03*
X109855000Y-110013750D03*
X120015000Y-107473750D03*
X120015000Y-97313750D03*
D13*
X50165000Y-23495000D03*
X43815000Y-26035000D03*
X274002500Y-61595000D03*
X267652500Y-64135000D03*
X269240000Y-42545000D03*
X262890000Y-45085000D03*
X259715000Y-23495000D03*
X253365000Y-26035000D03*
X245427500Y-80645000D03*
X239077500Y-83185000D03*
X254952500Y-61595000D03*
X248602500Y-64135000D03*
X250190000Y-42545000D03*
X243840000Y-45085000D03*
X240665000Y-23495000D03*
X234315000Y-26035000D03*
X226377500Y-80645000D03*
X220027500Y-83185000D03*
X235902500Y-61595000D03*
X229552500Y-64135000D03*
X231140000Y-42545000D03*
X224790000Y-45085000D03*
X221615000Y-23495000D03*
X215265000Y-26035000D03*
X202565000Y-23495000D03*
X196215000Y-26035000D03*
X183515000Y-23495000D03*
X177165000Y-26035000D03*
X164465000Y-23495000D03*
X158115000Y-26035000D03*
X145415000Y-23495000D03*
X139065000Y-26035000D03*
X126365000Y-23495000D03*
X120015000Y-26035000D03*
X107315000Y-23495000D03*
X100965000Y-26035000D03*
X88265000Y-23495000D03*
X81915000Y-26035000D03*
X69215000Y-23495000D03*
X62865000Y-26035000D03*
X207327500Y-80645000D03*
X200977500Y-83185000D03*
X188277500Y-80645000D03*
X181927500Y-83185000D03*
X169227500Y-80645000D03*
X162877500Y-83185000D03*
X150177500Y-80645000D03*
X143827500Y-83185000D03*
X131127500Y-80645000D03*
X124777500Y-83185000D03*
X112077500Y-80645000D03*
X105727500Y-83185000D03*
X93027500Y-80645000D03*
X86677500Y-83185000D03*
X73977500Y-80645000D03*
X67627500Y-83185000D03*
X54927500Y-80645000D03*
X48577500Y-83185000D03*
X216852500Y-61595000D03*
X210502500Y-64135000D03*
X197802500Y-61595000D03*
X191452500Y-64135000D03*
X178752500Y-61595000D03*
X172402500Y-64135000D03*
X159702500Y-61595000D03*
X153352500Y-64135000D03*
X140652500Y-61595000D03*
X134302500Y-64135000D03*
X121602500Y-61595000D03*
X115252500Y-64135000D03*
X102552500Y-61595000D03*
X96202500Y-64135000D03*
X83502500Y-61595000D03*
X77152500Y-64135000D03*
X64452500Y-61595000D03*
X58102500Y-64135000D03*
X212090000Y-42545000D03*
X205740000Y-45085000D03*
X193040000Y-42545000D03*
X186690000Y-45085000D03*
X173990000Y-42545000D03*
X167640000Y-45085000D03*
X154940000Y-42545000D03*
X148590000Y-45085000D03*
X135890000Y-42545000D03*
X129540000Y-45085000D03*
X116840000Y-42545000D03*
X110490000Y-45085000D03*
X97790000Y-42545000D03*
X91440000Y-45085000D03*
X78740000Y-42545000D03*
X72390000Y-45085000D03*
X59690000Y-42545000D03*
X53340000Y-45085000D03*
X295433750Y-99695000D03*
X289083750Y-102235000D03*
X271621250Y-99695000D03*
X265271250Y-102235000D03*
X247808750Y-99695000D03*
X241458750Y-102235000D03*
X223996250Y-99695000D03*
X217646250Y-102235000D03*
X81121250Y-99695000D03*
X74771250Y-102235000D03*
X57308750Y-99695000D03*
X50958750Y-102235000D03*
X33496250Y-99695000D03*
X27146250Y-102235000D03*
X33496250Y-80645000D03*
X27146250Y-83185000D03*
D11*
X283368750Y-109855000D03*
D12*
X283368750Y-99695000D03*
D11*
X297656250Y-88423750D03*
D12*
X297656250Y-78263750D03*
D11*
X266700000Y-33655000D03*
D12*
X266700000Y-23495000D03*
D11*
X278606250Y-109855000D03*
D12*
X278606250Y-99695000D03*
D11*
X259556250Y-88423750D03*
D12*
X259556250Y-78263750D03*
D11*
X280987500Y-71755000D03*
D12*
X280987500Y-61595000D03*
D11*
X261620000Y-57150000D03*
D12*
X271780000Y-57150000D03*
D11*
X262255000Y-38100000D03*
D12*
X252095000Y-38100000D03*
D11*
X254793750Y-109855000D03*
D12*
X254793750Y-99695000D03*
D11*
X252412500Y-88423750D03*
D12*
X252412500Y-78263750D03*
D11*
X261937500Y-71755000D03*
D12*
X261937500Y-61595000D03*
D11*
X257175000Y-52705000D03*
D12*
X257175000Y-42545000D03*
D11*
X247650000Y-33655000D03*
D12*
X247650000Y-23495000D03*
D11*
X230981250Y-109855000D03*
D12*
X230981250Y-99695000D03*
D11*
X233362500Y-88423750D03*
D12*
X233362500Y-78263750D03*
D11*
X242887500Y-71755000D03*
D12*
X242887500Y-61595000D03*
D11*
X238125000Y-52705000D03*
D12*
X238125000Y-42545000D03*
D11*
X228600000Y-33655000D03*
D12*
X228600000Y-23495000D03*
D11*
X209550000Y-33655000D03*
D12*
X209550000Y-23495000D03*
D11*
X190500000Y-33655000D03*
D12*
X190500000Y-23495000D03*
D11*
X171450000Y-33655000D03*
D12*
X171450000Y-23495000D03*
D11*
X152400000Y-33655000D03*
D12*
X152400000Y-23495000D03*
D11*
X133350000Y-33655000D03*
D12*
X133350000Y-23495000D03*
D11*
X114300000Y-33655000D03*
D12*
X114300000Y-23495000D03*
D11*
X95250000Y-33655000D03*
D12*
X95250000Y-23495000D03*
D11*
X76200000Y-33655000D03*
D12*
X76200000Y-23495000D03*
D11*
X57150000Y-33655000D03*
D12*
X57150000Y-23495000D03*
D11*
X159543750Y-109855000D03*
D12*
X159543750Y-99695000D03*
D11*
X88106250Y-109855000D03*
D12*
X88106250Y-99695000D03*
D11*
X64293750Y-109855000D03*
D12*
X64293750Y-99695000D03*
D11*
X40481250Y-109855000D03*
D12*
X40481250Y-99695000D03*
D11*
X214312500Y-88423750D03*
D12*
X214312500Y-78263750D03*
D11*
X195262500Y-88423750D03*
D12*
X195262500Y-78263750D03*
D11*
X176212500Y-88423750D03*
D12*
X176212500Y-78263750D03*
D11*
X157162500Y-88423750D03*
D12*
X157162500Y-78263750D03*
D11*
X138112500Y-88423750D03*
D12*
X138112500Y-78263750D03*
D11*
X119062500Y-88423750D03*
D12*
X119062500Y-78263750D03*
D11*
X100012500Y-88423750D03*
D12*
X100012500Y-78263750D03*
D11*
X80962500Y-88423750D03*
D12*
X80962500Y-78263750D03*
D11*
X61912500Y-88423750D03*
D12*
X61912500Y-78263750D03*
D11*
X40481250Y-88423750D03*
D12*
X40481250Y-78263750D03*
D11*
X223837500Y-71755000D03*
D12*
X223837500Y-61595000D03*
D11*
X204787500Y-71755000D03*
D12*
X204787500Y-61595000D03*
D11*
X185737500Y-71755000D03*
D12*
X185737500Y-61595000D03*
D11*
X166687500Y-71755000D03*
D12*
X166687500Y-61595000D03*
D11*
X152717500Y-76200000D03*
D12*
X142557500Y-76200000D03*
D11*
X128587500Y-71755000D03*
D12*
X128587500Y-61595000D03*
D11*
X109537500Y-71755000D03*
D12*
X109537500Y-61595000D03*
D11*
X90487500Y-71755000D03*
D12*
X90487500Y-61595000D03*
D11*
X71437500Y-71755000D03*
D12*
X71437500Y-61595000D03*
D11*
X45243750Y-71755000D03*
D12*
X45243750Y-61595000D03*
D11*
X219075000Y-52705000D03*
D12*
X219075000Y-42545000D03*
D11*
X200025000Y-52705000D03*
D12*
X200025000Y-42545000D03*
D11*
X180975000Y-52705000D03*
D12*
X180975000Y-42545000D03*
D11*
X161925000Y-52705000D03*
D12*
X161925000Y-42545000D03*
D11*
X142875000Y-52705000D03*
D12*
X142875000Y-42545000D03*
D11*
X123825000Y-52705000D03*
D12*
X123825000Y-42545000D03*
D11*
X104775000Y-52705000D03*
D12*
X104775000Y-42545000D03*
D11*
X85725000Y-52705000D03*
D12*
X85725000Y-42545000D03*
D11*
X66675000Y-52705000D03*
D12*
X66675000Y-42545000D03*
D11*
X38417500Y-57150000D03*
D12*
X28257500Y-57150000D03*
M02*
